<svg xmlns="http://www.w3.org/2000/svg" xmlns:xlink="http://www.w3.org/1999/xlink" xmlns:sketch="http://www.bohemiancoding.com/sketch/ns" width="54px" height="55px" viewBox="0 0 54 55" version="1.1">
    <title>Slice 1</title>
    <description>Created with Sketch (http://www.bohemiancoding.com/sketch)</description>
    <defs>
        <rect id="path-3" x="6" y="6" width="40" height="40" rx="2"/>
        <mask id="mask-4" sketch:name="Rectangle 28 copy" fill="white">
            <use xlink:href="#path-3"/>
        </mask>
        <filter x="-20%" y="-20%" width="140%" height="140%" filterUnits="objectBoundingBox" id="filter-5">
            <feMorphology radius="1" in="SourceAlpha" operator="dilate" result="shadowSpreadOuter1"/>
            <feOffset dx="0" dy="0" in="shadowSpreadOuter1" result="shadowOffsetOuter1"/>
            <feGaussianBlur stdDeviation="0.75" in="shadowOffsetOuter1" result="shadowBlurOuter1"/>
            <feColorMatrix values="0 0 0 0 0   0 0 0 0 0   0 0 0 0 0  0 0 0 0.2 0" in="shadowBlurOuter1" type="matrix" result="shadowMatrixOuter1"/>
            <feMerge>
                <feMergeNode in="shadowMatrixOuter1"/>
                <feMergeNode in="SourceGraphic"/>
            </feMerge>
        </filter>
        <rect id="path-6" x="6" y="6" width="40" height="40" rx="2"/>
        <mask id="mask-7" sketch:name="Rectangle 28 copy" fill="white">
            <use xlink:href="#path-6"/>
        </mask>
        <rect id="path-8" x="0" y="0" width="20" height="14" rx="7"/>
        <g id="hub-map-clustered-content-marker-badge" transform="translate(32.000000, 1.000000)">
            <g id="Rectangle-339">
                <use fill="#0F98EC" fill-rule="evenodd" sketch:type="MSShapeGroup" xlink:href="#path-8"/>
                <use fill="none" xlink:href="#path-8"/>
            </g>
        </g>
    </defs>
    <g id="hub-map-clustered-content-marker" stroke="none" stroke-width="1" fill="none" fill-rule="evenodd" sketch:type="MSPage">
        <g id="Multi-Avatar-+-Badge" sketch:type="MSLayerGroup" transform="translate(1.000000, 2.000000)">
            <g id="Multi-Avatar" fill="#FFFFFF" sketch:type="MSShapeGroup">
                <rect id="Rectangle-28-copy" filter="url(#filter-5)" transform="translate(26.000000, 26.000000) rotate(-20.000000) translate(-26.000000, -26.000000) " x="6" y="6" width="40" height="40" rx="2"/>
                <use id="Rectangle-28-copy" filter="url(#filter-5)" transform="translate(26.000000, 26.000000) rotate(-10.000000) translate(-26.000000, -26.000000) " xlink:href="#path-3"/>
                <use id="Rectangle-28-copy" filter="url(#filter-5)" xlink:href="#path-6"/>
            </g>
            <g id="hub-map-clustered-content-marker-thumbnail" transform="translate(8.000000, 8.000000)" sketch:type="MSShapeGroup">
                <rect id="Rectangle-1" fill="#E8ECED" x="0" y="0.0092879257" width="36" height="36"/>
                <path d="M18,35.9148212 L0.249980103,36.0092879 C0.249980103,36.0092879 0.15949733,35.37499 0.159497448,31.200764 C0.159497573,27.026538 14.3893332,24.3023119 14.3893332,24.3023119 C14.3893332,24.3023119 14.4493062,23.3901897 14.2491635,23.0528945 C14.0490209,22.7155993 12.1326142,21.0841129 11.824206,19.2399862 C11.515798,17.3958594 11.7367756,17.4034014 10.8716796,17.1495409 C10.0065837,16.8956804 9.85980087,16.130325 9.33785633,13.8987243 C8.81591178,11.6671237 10.3924058,11.9480176 10.3924058,11.9480176 C10.3924058,11.9480176 9.87165106,8.78919621 10.2177167,6.37376145 C10.5637823,3.95832665 15.4681514,0.956656347 17.9491893,0.956656347 C17.9663298,0.956656347 17.983266,0.958324694 18,0.961638338 C18.016734,0.958324694 18.0336702,0.956656347 18.0508107,0.956656347 C20.5318486,0.956656347 25.4362177,3.95832665 25.7822833,6.37376145 C26.1283489,8.78919621 25.6075942,11.9480176 25.6075942,11.9480176 C25.6075942,11.9480176 27.1840882,11.6671237 26.6621437,13.8987243 C26.1401991,16.130325 25.9934163,16.8956804 25.1283204,17.1495409 C24.2632244,17.4034014 24.484202,17.3958594 24.175794,19.2399862 C23.8673858,21.0841129 21.9509791,22.7155993 21.7508365,23.0528945 C21.5506938,23.3901897 21.6106668,24.3023119 21.6106668,24.3023119 C21.6106668,24.3023119 35.8405024,27.026538 35.8405026,31.200764 C35.8405027,35.37499 35.7500199,36.0092879 35.7500199,36.0092879 L18,35.9148212 Z" id="Path-1" fill="#BFC8D3"/>
            </g>
        </g>
    </g>
<head/></svg>
